#!OML:ASF F:\VICON\USERDATA\Patient Classification 1\PLAYGROUND\JustinFriday\JustinFriday.ASF
:FULLY-SPECIFIED
:DEGREES
1270
root 14.3469 31.1313 49.2378 -421.243 -186.281 -4.9267
lowerback 76.4953 7.77858 -16.8869
upperback 8.93611 7.36761 -1.42389
thorax -10.0812 8.4608 0.420103
lowerneck 0.195655 -0.992638 -7.91763
upperneck 5.27904 -1.45229 8.888
head 1.82765 -0.652474 4.37604
rclavicle 2.60408e-014 -8.82604e-014
rhumerus 62.8954 2.19246 -85.204
rradius 79.3703
rwrist 204.175
rhand -32.292 29.2347
rfingers 7.12502
rthumb -5.53065 -0.673131
lclavicle 2.60408e-014 -8.82604e-014
lhumerus 60.812 -1.69312 67.3403
lradius 63.8591
lwrist -23.8971
lhand -5.104 2.53593
lfingers 7.12502
lthumb 20.6935 31.4527
rfemur -31.0077 1.64557 26.3698
rtibia 116.557
rfoot -16.9082 -13.8655
rtoes 11.2813
lfemur -38.1631 22.0467 -11.6663
ltibia 99.6941
lfoot -27.9029 -10.8505
ltoes -13.138
1271
root 14.3451 31.0751 49.0702 -421.526 -186.429 -4.74721
lowerback 75.3759 7.41142 -16.5288
upperback 9.30976 7.36263 -1.46803
thorax -9.78804 8.40696 0.348213
lowerneck 0.272292 -0.94214 -7.75563
upperneck 5.54663 -1.38878 8.93268
head 1.89471 -0.609789 4.36369
rclavicle 8.54774e-015 3.49861e-014
rhumerus 61.9995 2.19715 -85.2849
rradius 79.7899
rwrist 204.264
rhand -32.2118 29.1624
rfingers 7.12502
rthumb -5.45327 -0.747396
lclavicle 8.54774e-015 3.49861e-014
lhumerus 60.0015 -2.04091 67.0157
lradius 64.2841
lwrist -23.7067
lhand -5.29921 2.63535
lfingers 7.12502
lthumb 20.5059 31.5724
rfemur -33.0686 1.57691 27.0662
rtibia 119.883
rfoot -17.3864 -15.3309
rtoes 12.0213
lfemur -38.5319 22.587 -10.8083
ltibia 101.837
lfoot -28.0613 -12.3109
ltoes -11.3823
1272
root 14.3407 31.0037 48.8795 -421.377 -187.906 -3.84933
lowerback 73.5675 6.50213 -15.0081
upperback 10.025 7.65365 -1.44999
thorax -9.26666 8.41121 -0.130801
lowerneck 0.255537 -0.893374 -7.50151
upperneck 5.66291 -1.32132 8.91331
head 1.92588 -0.566056 4.30786
rclavicle 1.35174e-014 -2.06736e-014
rhumerus 61.4012 2.1852 -85.5083
rradius 80.4926
rwrist 204.352
rhand -32.3343 29.3644
rfingers 7.12502
rthumb -5.57152 -0.542311
lclavicle 1.35174e-014 -2.06736e-014
lhumerus 59.4405 -2.28321 67.0988
lradius 64.8456
lwrist -24.1565
lhand -4.91699 2.5275
lfingers 7.12502
lthumb 20.8732 31.4246
rfemur -35.6113 2.03645 29.9252
rtibia 122.983
rfoot -17.4876 -17.6066
rtoes 10.0989
lfemur -39.4516 23.6111 -8.26769
ltibia 103.903
lfoot -27.9248 -13.5577
ltoes -10.9443
1273
root 14.3373 30.9305 48.6824 -421.239 -189.271 -3.01433
lowerback 71.7927 5.66598 -13.5685
upperback 10.711 7.89233 -1.38645
thorax -8.73242 8.40655 -0.528591
lowerneck -0.0328961 -0.892906 -7.36098
upperneck 6.08908 -1.31441 8.92938
head 2.11882 -0.544957 4.29262
rclavicle -3.57812e-014 1.03368e-014
rhumerus 60.7744 2.23405 -85.7904
rradius 81.2141
rwrist 204.456
rhand -32.6328 29.5201
rfingers 7.12502
rthumb -5.85974 -0.378852
lclavicle -3.57812e-014 1.03368e-014
lhumerus 58.8807 -2.48006 67.4357
lradius 65.5013
lwrist -24.8103
lhand -4.45813 2.37839
lfingers 7.12502
lthumb 21.314 31.2263
rfemur -38.1236 2.57988 32.6603
rtibia 125.939
rfoot -17.7642 -18.4069
rtoes 16.3807
lfemur -40.4597 24.7279 -5.7106
ltibia 106.088
lfoot -27.1657 -15.3878
ltoes -9.55003
1274
root 14.3254 30.8667 48.4903 -421.694 -188.891 -3.1379
lowerback 70.9425 5.47624 -13.557
upperback 10.9491 7.74825 -1.40066
thorax -8.51529 8.31597 -0.414083
lowerneck -0.165983 -0.992797 -7.33467
upperneck 6.80979 -1.48286 9.264
head 2.15418 -0.586427 3.97004
rclavicle 1.41137e-014 6.75868e-014
rhumerus 59.8635 2.27945 -85.9696
rradius 81.7875
rwrist 204.59
rhand -32.8485 29.436
rfingers 7.12502
rthumb -6.06793 -0.457151
lclavicle 1.41137e-014 6.75868e-014
lhumerus 58.0076 -2.91213 67.6289
lradius 66.1526
lwrist -24.8216
lhand -4.55618 2.56172
lfingers 7.12502
lthumb 21.2198 31.4203
rfemur -40.082 2.26554 32.4534
rtibia 128.799
rfoot -18.4835 -18.289
rtoes 17.032
lfemur -40.7901 25.2458 -5.67336
ltibia 107.772
lfoot -25.8149 -16.2655
ltoes -9.07838
1275
root 14.3073 30.8119 48.3063 -422.622 -187.07 -4.00745
lowerback 70.919 5.85776 -14.7979
upperback 10.7999 7.31979 -1.49258
thorax -8.5802 8.16705 0.124337
lowerneck -0.0237227 -1.14046 -7.39833
upperneck 7.33566 -1.68891 9.26979
head 2.30428 -0.677127 3.98168
rclavicle 2.74323e-014 -5.56597e-014
rhumerus 58.7096 2.29253 -85.8721
rradius 82.2668
rwrist 204.423
rhand -32.7063 29.5281
rfingers 7.12502
rthumb -5.93066 -0.368848
lclavicle 2.74323e-014 -5.56597e-014
lhumerus 56.8999 -3.43986 67.8115
lradius 66.7968
lwrist -24.6184
lhand -4.80698 2.77176
lfingers 7.12502
lthumb 20.9789 31.6572
rfemur -41.4919 1.00025 29.7332
rtibia 131.325
rfoot -18.9441 -17.6518
rtoes 16.4729
lfemur -40.5034 25.2085 -7.81366
ltibia 109.039
lfoot -24.1909 -16.2654
ltoes -7.98506
1276
root 14.2588 30.7616 48.1629 -424.018 -183.49 -5.68333
lowerback 72.5084 6.69978 -17.363
upperback 9.98662 6.2931 -1.87817
thorax -9.09019 7.92532 0.898301
lowerneck 0.0286783 -1.27518 -7.26732
upperneck 7.72182 -1.86767 9.11699
head 2.42333 -0.756183 3.91129
rclavicle -7.43455e-014 -5.24792e-014
rhumerus 57.8545 2.38396 -86.0457
rradius 82.4931
rwrist 204.349
rhand -32.558 29.5659
rfingers 7.12502
rthumb -5.7875 -0.335013
lclavicle -7.43455e-014 -5.24792e-014
lhumerus 55.9084 -3.83399 68.2398
lradius 67.4784
lwrist -24.7373
lhand -4.70328 2.83807
lfingers 7.12502
lthumb 21.0785 31.7124
rfemur -42.3601 -1.35853 23.8835
rtibia 133.595
rfoot -20.1308 -15.5505
rtoes 18.7886
lfemur -39.4014 24.4056 -12.3146
ltibia 109.614
lfoot -21.6201 -15.9557
ltoes -5.63676
